<?xml version="1.0" encoding="UTF-8"?>
<svg width="41px" height="46px" viewBox="0 0 41 46" version="1.1" xmlns="http://www.w3.org/2000/svg" xmlns:xlink="http://www.w3.org/1999/xlink">
    <!-- Generator: Sketch 48.2 (47327) - http://www.bohemiancoding.com/sketch -->
    <title>turn-off (1)</title>
    <desc>Created with Sketch.</desc>
    <defs>
        <polygon id="path-1" points="0.01725 0.0115 40.4061125 0.0115 40.4061125 45.7127875 0.01725 45.7127875"></polygon>
    </defs>
    <g id="login-icon-copy" stroke="none" stroke-width="1" fill="none" fill-rule="evenodd" transform="translate(-5.000000, -2.000000)">
        <g id="turn-off-(1)" transform="translate(5.000000, 2.000000)">
            <mask id="mask-2" fill="white">
                <use xlink:href="#path-1"></use>
            </mask>
            <g id="Clip-2"></g>
            <path d="M34.4876375,11.224 C33.8137375,10.5501 32.72095,10.5501 32.0473375,11.224 C31.3745875,11.8976125 31.3745875,12.98925 32.0473375,13.66315 C35.213,16.82795 36.9561125,21.0372375 36.9561125,25.5136125 C36.9561125,29.9899875 35.213,34.199275 32.0473375,37.364075 C28.7813375,40.6309375 24.4904,42.2639375 20.199175,42.2639375 C15.90795,42.2639375 11.614425,40.6297875 8.3475625,37.362925 C1.8147,30.8300625 1.8147,20.199175 8.3487125,13.66545 C9.0226125,12.99155 9.0226125,11.8999125 8.3487125,11.2263 C7.6748125,10.5524 6.583175,10.5524 5.9095625,11.2263 C-1.9688,19.104375 -1.96995,31.924 5.9084125,39.802075 C9.849175,43.7428375 15.024175,45.7127875 20.199175,45.7127875 C25.374175,45.7127875 30.549175,43.7428375 34.4876375,39.804375 C38.304775,35.9872375 40.4061125,30.912 40.4061125,25.5147625 C40.4061125,20.1160875 38.304775,15.0411375 34.4876375,11.224 Z" id="Fill-1" fill="#FFFFFF" mask="url(#mask-2)"></path>
            <path d="M20.196875,22.355425 C21.150225,22.355425 21.921875,21.5829125 21.921875,20.630425 L21.921875,1.73305 C21.921875,0.7805625 21.150225,0.00805 20.196875,0.00805 C19.244675,0.00805 18.471875,0.7805625 18.471875,1.73305 L18.471875,20.630425 C18.471875,21.5840625 19.244675,22.355425 20.196875,22.355425 Z" id="Fill-3" fill="#FFFFFF" mask="url(#mask-2)"></path>
        </g>
    </g>
</svg>