<?xml version="1.0" encoding="utf-8"?>
<!-- Generator: Adobe Illustrator 21.1.0, SVG Export Plug-In . SVG Version: 6.00 Build 0)  -->
<svg version="1.1" id="Layer_1" xmlns="http://www.w3.org/2000/svg" xmlns:xlink="http://www.w3.org/1999/xlink" x="0px" y="0px"
	 viewBox="0 0 160 60" style="enable-background:new 0 0 160 60;" xml:space="preserve">
<style type="text/css">
	.st0{fill:#FFFFFF;}
	.st1{fill:#26F1FF;}
	.st2{fill:#2BEFFF;}
</style>
<g>
	<path class="st0" d="M15.6,14.7c0,2-0.3,3.4-1,4.3c-0.6,0.9-1.8,1.3-3.5,1.3c-1.7,0-2.8-0.5-3.5-1.4c-0.6-0.9-1-2.4-1-4.3
		s0.3-3.4,1-4.4s1.8-1.4,3.5-1.4s2.8,0.5,3.5,1.4C15.3,11.2,15.6,12.7,15.6,14.7z M8,14.6c0,1.6,0.2,2.8,0.6,3.5
		c0.4,0.7,1.3,1.1,2.5,1.1c1.2,0,2.1-0.4,2.5-1.1c0.4-0.7,0.6-1.9,0.6-3.5c0-1.7-0.2-2.9-0.7-3.6c-0.4-0.8-1.3-1.1-2.5-1.1
		c-1.2,0-2,0.4-2.5,1.1S8,13,8,14.6z"/>
	<path class="st0" d="M17.9,20.2V9h2.3l3.2,9.5L26.5,9h2.3v11.2h-1.2v-9.9h-0.2L24,19.8h-1.4l-3.3-9.5h-0.2v9.9H17.9z"/>
	<path class="st0" d="M31.5,20.2V9h1.2v11.2H31.5z"/>
	<path class="st0" d="M35.5,9h4.1c1.1,0,1.9,0.2,2.5,0.7c0.6,0.5,0.8,1.2,0.8,2.2c0,0.7-0.1,1.3-0.4,1.6s-0.6,0.7-1.1,0.9
		c1.2,0.4,1.8,1.3,1.8,2.6c0,1.1-0.3,1.9-0.9,2.4c-0.6,0.5-1.5,0.7-2.6,0.7h-4.3V9z M39.5,10.1h-2.8V14h2.9c0.7,0,1.2-0.2,1.5-0.5
		s0.5-0.8,0.5-1.5c0-0.7-0.2-1.1-0.5-1.4C40.8,10.2,40.2,10.1,39.5,10.1z M39.6,15h-2.9v4.1h3c0.7,0,1.3-0.2,1.7-0.5
		c0.4-0.3,0.6-0.9,0.6-1.6c0-0.4-0.1-0.8-0.2-1c-0.2-0.3-0.4-0.5-0.6-0.6C40.6,15.2,40.1,15,39.6,15z"/>
	<path class="st0" d="M45.5,20.2V9h6.8v1.1h-5.6V14h4.6V15h-4.6v4.1h5.6v1.1H45.5z"/>
	<path class="st0" d="M54.4,20.2V9h6.8v1.1h-5.6V14h4.6V15h-4.6v4.1h5.6v1.1H54.4z"/>
</g>
<g>
	<path class="st1" d="M27.9,49.3V27.7H41v2.1H30.3v7.4h8.8v2.1h-8.8v7.8H41v2.1H27.9z"/>
	<path class="st1" d="M51,29.5c-3.1,0-4.7,1.2-4.7,3.5c0,1.3,0.4,2.2,1.1,2.7c0.7,0.5,2.2,1,4.4,1.5c2.2,0.5,3.7,1.1,4.6,1.9
		c0.9,0.8,1.4,2.1,1.4,3.8c0,4.4-2.3,6.6-6.9,6.6c-1.5,0-3.4-0.2-5.7-0.5l-1.1-0.2l0.2-2c2.8,0.4,5,0.6,6.4,0.6
		c3.1,0,4.6-1.4,4.6-4.3c0-1.2-0.3-2-1-2.5c-0.7-0.5-1.9-0.9-3.8-1.3c-2.4-0.5-4.1-1.2-5.2-2c-1-0.8-1.5-2.2-1.5-4.1
		c0-3.9,2.3-5.8,6.9-5.8c1.5,0,3.3,0.2,5.4,0.5l1.1,0.2l-0.2,2C54.2,29.7,52.2,29.5,51,29.5z"/>
	<path class="st1" d="M61.9,49.3V27.7H75v2.1H64.3v7.4h8.8v2.1h-8.8v7.8H75v2.1H61.9z"/>
	<path class="st1" d="M77.2,49.3l5.9-21.5h5.2l5.9,21.5h-2.4l-1.6-5.5h-9.2l-1.6,5.5H77.2z M84.9,29.8l-3.3,11.8h8.1l-3.3-11.8H84.9
		z"/>
	<path class="st1" d="M100,41v8.2h-2.4V27.7h8c2.3,0,4,0.5,5.1,1.6c1.2,1.1,1.7,2.7,1.7,4.9c0,3.3-1.3,5.4-3.9,6.2l4.1,8.7H110
		l-3.9-8.2H100z M105.6,38.9c2.9,0,4.4-1.5,4.4-4.5s-1.5-4.5-4.4-4.5H100v9H105.6z"/>
	<path class="st1" d="M129.7,48.9c-2.1,0.4-4.1,0.7-5.7,0.7c-1.7,0-3.1-0.2-4.1-0.7c-1-0.5-1.9-1.2-2.4-2.2c-0.6-1-1-2.1-1.2-3.4
		c-0.2-1.3-0.3-2.9-0.3-4.8s0.1-3.5,0.3-4.8c0.2-1.3,0.6-2.4,1.2-3.4c0.6-1,1.4-1.7,2.4-2.2c1-0.5,2.4-0.7,4-0.7s3.6,0.2,5.8,0.7
		l-0.1,2c-2.1-0.4-4-0.6-5.6-0.6c-2.3,0-3.8,0.7-4.5,2c-0.7,1.4-1.1,3.7-1.1,6.9c0,1.6,0.1,3,0.2,3.9c0.1,1,0.4,1.9,0.8,2.7
		c0.4,0.8,1,1.4,1.7,1.7c0.8,0.3,1.9,0.5,3.3,0.5s3.2-0.2,5.2-0.6L129.7,48.9z"/>
	<path class="st1" d="M147,49.3v-9.7h-10.9v9.7h-2.4V27.7h2.4v9.6H147v-9.6h2.4v21.5H147z"/>
</g>
<polygon class="st2" points="20.2,23.6 20.2,26.9 16.9,26.9 16.9,29.3 20.2,29.3 20.2,32.6 22.6,32.6 22.6,29.3 25.9,29.3
	25.9,26.9 22.6,26.9 22.6,23.6 "/>
<path class="st0" d="M7.6,27.1V49H10v-8.4h6.2l4,8.4h2.7l-4.2-8.9c2.6-0.8,3.9-2.9,4-6.1h-2.5c0,3-1.5,4.5-4.5,4.5H10v-9.2h5.4v-2.2
	H7.6z"/>
</svg>